<svg width="150" height="150" viewBox="0 0 150 150" fill="none" xmlns="http://www.w3.org/2000/svg">
<circle cx="75" cy="75" r="75" fill="white"/>
<path d="M24.08 48.6H36.96V52.52H28.52V60.64H35.32V64.64H28.52V74.04H38.28V78H24.08V48.6ZM53.5519 48.56L67.7119 78H62.5519L60.0319 72.24H46.5519L44.0319 78H39.0319L53.1119 48.56H53.5519ZM51.5519 61.08L48.3519 68.2H58.2719L55.1119 61.12L53.3919 57.08H53.3119L51.5519 61.08ZM76.9347 78.4C75.3347 78.4 73.748 78.12 72.1747 77.56C70.6014 77 69.468 76.3733 68.7747 75.68L70.8947 71.88C71.4547 72.3867 72.3214 72.92 73.4947 73.48C74.6947 74.0133 75.8414 74.28 76.9347 74.28C78.348 74.28 79.4947 73.9467 80.3747 73.28C81.2814 72.6133 81.7347 71.6933 81.7347 70.52C81.7347 69.6133 81.4947 68.8267 81.0147 68.16C80.5347 67.4933 79.948 66.9467 79.2547 66.52C78.5614 66.0667 77.5747 65.52 76.2947 64.88C74.7747 64.1333 73.7347 63.5733 73.1747 63.2C70.588 61.4667 69.2947 59.0667 69.2947 56C69.2947 53.4667 70.1347 51.5333 71.8147 50.2C73.4947 48.84 75.6147 48.16 78.1747 48.16C80.9214 48.16 83.2547 48.9467 85.1747 50.52L83.0547 54.16C82.548 53.6267 81.828 53.1733 80.8947 52.8C79.988 52.4 79.0147 52.2 77.9747 52.2C76.6414 52.2 75.588 52.5067 74.8147 53.12C74.068 53.7067 73.6947 54.5867 73.6947 55.76C73.6947 56.5867 73.9347 57.3333 74.4147 58C74.8947 58.64 75.4947 59.2 76.2147 59.68C76.9614 60.16 77.9614 60.7467 79.2147 61.44C80.4147 62.1067 81.3347 62.64 81.9747 63.04C82.6147 63.4133 83.2147 63.8667 83.7747 64.4C84.548 65.0933 85.1747 65.92 85.6547 66.88C86.1347 67.84 86.3747 68.8933 86.3747 70.04C86.3747 71.8267 85.9614 73.3467 85.1347 74.6C84.3347 75.8533 83.2147 76.8 81.7747 77.44C80.3614 78.08 78.748 78.4 76.9347 78.4ZM97.6303 64.28L87.4303 48.6H92.7903L99.8703 60.2L106.95 48.6H112.27L102.11 64.36V78H97.6303V64.28Z" fill="#F6AE2D"/>
<path d="M56.48 106.28C53.44 106.28 50.8 105.6 48.56 104.24C46.3467 102.88 44.6533 101.067 43.48 98.8C42.3067 96.5067 41.72 93.9867 41.72 91.24C41.72 88.3333 42.3467 85.7333 43.6 83.44C44.88 81.1467 46.6667 79.36 48.96 78.08C51.2533 76.7733 53.8533 76.12 56.76 76.12C58.0667 76.12 59.28 76.2667 60.4 76.56C61.5467 76.8267 62.4933 77.1467 63.24 77.52C63.9867 77.8667 64.48 78.16 64.72 78.4L62.76 82.4C61.1333 80.96 59.0133 80.24 56.4 80.24C54.56 80.24 52.8933 80.6933 51.4 81.6C49.9067 82.5067 48.7333 83.8 47.88 85.48C47.0267 87.16 46.6 89.1067 46.6 91.32C46.6 93.3467 46.9733 95.1867 47.72 96.84C48.4933 98.4933 49.6133 99.8 51.08 100.76C52.5467 101.72 54.2933 102.2 56.32 102.2C58.6667 102.2 60.9333 101.533 63.12 100.2L64.44 104C63.8533 104.533 62.7733 105.053 61.2 105.56C59.6533 106.04 58.08 106.28 56.48 106.28ZM69.0566 76.6H73.5366V88.6H83.8966V76.6H88.3766V106H83.8966V92.36H73.5366V106H69.0566V76.6ZM94.5253 76.6H107.405V80.52H98.9653V88.64H105.765V92.64H98.9653V102.04H108.725V106H94.5253V76.6ZM113.197 76.6H126.997V80.48H117.637V88.8H124.917V92.72H117.637V106H113.197V76.6Z" fill="#729EA1"/>
</svg>
